Coordinates
version=1
nRows=17
nColumns=38
inDegrees=no

Units are S.I. units (second, meters, Newtons, ...)
If the header above contains a line with 'inDegrees', this indicates whether rotational values are in degrees (yes) or radians (no).

endheader
time	pelvis_tilt	pelvis_list	pelvis_rotation	pelvis_tx	pelvis_ty	pelvis_tz	hip_flexion_r	hip_adduction_r	hip_rotation_r	knee_angle_r	ankle_angle_r	subtalar_angle_r	mtp_angle_r	hip_flexion_l	hip_adduction_l	hip_rotation_l	knee_angle_l	ankle_angle_l	subtalar_angle_l	mtp_angle_l	lumbar_extension	lumbar_bending	lumbar_rotation	arm_flex_r	arm_add_r	arm_rot_r	elbow_flex_r	pro_sup_r	wrist_flex_r	wrist_dev_r	arm_flex_l	arm_add_l	arm_rot_l	elbow_flex_l	pro_sup_l	wrist_flex_l	wrist_dev_l
0	2.43305	1.44635	-0.83627	0.751697	-0.443612	1.01036	-0.0205846	0.0903097	-0.34093	0.330694	0.147504	0	0	0.418227	-0.127691	0.0317751	1.03028	-0.0106515	0	0	-0.367968	0.113811	0.0354525	0.00603715	-0.242018	0.14223	0.351362	1.2663	0	0	0.113387	-0.217135	0.439839	0.306229	1.17755	0	0
0.01	2.46709	1.4453	-0.876111	0.752686	-0.436059	1.01055	-0.0359676	0.0891765	-0.336244	0.324983	0.150712	0	0	0.414359	-0.128807	0.0166707	0.984235	-0.00414807	0	0	-0.373833	0.108476	0.0398088	0.0107829	-0.241588	0.146856	0.350739	1.26203	0	0	0.117625	-0.218432	0.445291	0.306316	1.17309	0	0
0.02	2.49734	1.44453	-0.911903	0.753593	-0.428408	1.01062	-0.0503672	0.0877909	-0.331208	0.320121	0.156236	0	0	0.410069	-0.130238	-0.00176632	0.936346	0.00222681	0	0	-0.379955	0.103434	0.0437822	0.0150224	-0.241423	0.1506	0.351591	1.25855	0	0	0.121319	-0.219855	0.449458	0.307124	1.16891	0	0
0.03	2.5112	1.44478	-0.930721	0.754379	-0.420688	1.01035	-0.0616312	0.0869408	-0.327575	0.317248	0.164028	0	0	0.407694	-0.132575	-0.0213676	0.888361	0.00766012	0	0	-0.383774	0.0997358	0.0473026	0.0183148	-0.241762	0.154165	0.35337	1.25503	0	0	0.124149	-0.221183	0.452487	0.308565	1.16467	0	0
0.04	2.5878	1.44514	-1.01175	0.755283	-0.413642	1.01106	-0.07679	0.0794136	-0.321199	0.31355	0.167779	0	0	0.405594	-0.143155	-0.0782968	0.84761	0.00286594	0	0	-0.395672	0.0881974	0.0483077	0.0271955	-0.238048	0.15179	0.349898	1.25955	0	0	0.130778	-0.223916	0.449609	0.309393	1.16862	0	0
0.05	2.59342	1.44173	-1.02634	0.756042	-0.405054	1.01024	-0.0916207	0.080573	-0.312622	0.31082	0.174089	0	0	0.388004	-0.133842	-0.0723613	0.782974	0.014134	0	0	-0.400195	0.0867817	0.0563288	0.0292175	-0.23832	0.140991	0.347449	1.27801	0	0	0.132744	-0.219139	0.426019	0.302734	1.20157	0	0
0.06	2.65754	1.44517	-1.09145	0.7563	-0.397987	1.01038	-0.0998325	0.0709114	-0.311485	0.312296	0.17917	0	0	0.388914	-0.138019	-0.125871	0.741802	0.0113691	0	0	-0.406983	0.0765528	0.0531376	0.0360338	-0.237	0.150472	0.348194	1.26591	0	0	0.136935	-0.225119	0.446114	0.309134	1.17402	0	0
0.07	2.62808	1.44615	-1.06706	0.756643	-0.389258	1.0088	-0.106699	0.0730812	-0.307905	0.31323	0.188407	0	0	0.379931	-0.128449	-0.115769	0.680225	0.0215809	0	0	-0.403801	0.0785161	0.0574595	0.0355857	-0.238876	0.150328	0.348863	1.26873	0	0	0.135036	-0.223972	0.443469	0.309612	1.17683	0	0
0.08	2.65727	1.44826	-1.09854	0.756947	-0.38103	1.00804	-0.115098	0.0674546	-0.307437	0.313968	0.191613	0	0	0.374252	-0.122316	-0.137004	0.628689	0.0242761	0	0	-0.406356	0.0735079	0.0566062	0.0391798	-0.23842	0.151525	0.348623	1.27037	0	0	0.136474	-0.224693	0.440995	0.310499	1.1791	0	0
0.09	2.67281	1.44183	-1.1147	0.756666	-0.372801	1.00819	-0.133848	0.0659234	-0.32414	0.309029	0.188058	0	0	0.359942	-0.12026	-0.153777	0.576472	0.0272363	0	0	-0.41655	0.0747252	0.0566183	0.0435487	-0.238891	0.152919	0.348149	1.27162	0	0	0.138591	-0.224016	0.437933	0.310606	1.18045	0	0
0.1	2.71838	1.45301	-1.16861	0.755992	-0.364388	1.00651	-0.134871	0.0460313	-0.321811	0.312027	0.203327	0	0	0.360086	-0.102399	-0.167045	0.526803	0.0272579	0	0	-0.409786	0.0640644	0.0554624	0.0462755	-0.239596	0.154275	0.348981	1.27255	0	0	0.135905	-0.223552	0.434374	0.311271	1.18177	0	0
0.11	2.75553	1.45788	-1.20677	0.755646	-0.355952	1.00537	-0.140157	0.0381626	-0.321666	0.31493	0.212703	0	0	0.357929	-0.0929739	-0.182819	0.481748	0.02991	0	0	-0.408315	0.0581938	0.0533875	0.0478805	-0.23958	0.155367	0.349388	1.27303	0	0	0.135975	-0.223473	0.431449	0.31186	1.18282	0	0
0.12	2.80814	1.46049	-1.25979	0.755193	-0.34742	1.0044	-0.148277	0.0293083	-0.323575	0.318232	0.224343	0	0	0.353249	-0.0821622	-0.196589	0.439078	0.0320547	0	0	-0.409262	0.0518145	0.05038	0.047915	-0.243465	0.182958	0.355638	1.2367	0	0	0.135046	-0.226322	0.443457	0.31758	1.16224	0	0
0.13	2.83693	1.46392	-1.28794	0.754681	-0.33877	1.00324	-0.155252	0.0235348	-0.325746	0.31979	0.233808	0	0	0.352685	-0.0736509	-0.20637	0.403612	0.0387453	0	0	-0.408048	0.0483575	0.0476998	0.0493843	-0.24359	0.181915	0.355101	1.23992	0	0	0.135585	-0.225596	0.440378	0.316651	1.16494	0	0
0.14	2.88527	1.4661	-1.33548	0.754099	-0.329988	1.00224	-0.164283	0.0160081	-0.329161	0.320854	0.241073	0	0	0.34839	-0.0614305	-0.209187	0.366973	0.0441209	0	0	-0.408434	0.0432412	0.0446479	0.0506204	-0.24346	0.181563	0.354545	1.24233	0	0	0.136752	-0.224941	0.437499	0.314692	1.16753	0	0
0.15	2.90557	1.45957	-1.35308	0.75363	-0.32087	1.00225	-0.184209	0.0113803	-0.348682	0.318312	0.243146	0	0	0.334209	-0.0535979	-0.206399	0.331014	0.0488817	0	0	-0.417293	0.0432541	0.0419994	0.0525657	-0.243099	0.181264	0.353332	1.24391	0	0	0.139163	-0.224036	0.434527	0.311624	1.16979	0	0
0.16	3.02842	1.46426	-1.47635	0.752893	-0.311708	1.00082	-0.190838	-0.0022965	-0.336542	0.319889	0.25063	0	0	0.327843	-0.0305834	-0.199794	0.293629	0.048232	0	0	-0.414363	0.0286277	0.0375095	0.0518718	-0.241198	0.17933	0.352438	1.24623	0	0	0.139203	-0.224808	0.430665	0.309361	1.17374	0	0
